<mxfile host="app.diagrams.net" modified="2023-11-08T05:36:34.604Z" agent="Mozilla/5.0 (Windows NT 10.0; Win64; x64) AppleWebKit/537.36 (KHTML, like Gecko) Chrome/116.0.0.0 Safari/537.36" version="22.0.8" etag="imUSCdSu6GlL8GRda9lM" type="github">
  <diagram name="Trang-1" id="rqa8erneqGBhDNM2Amtp">
    <mxGraphModel>
      <root>
        <mxCell id="0" />
        <mxCell id="1" parent="0" />
      </root>
    </mxGraphModel>
  </diagram>
</mxfile>
